<?xml version="1.0" standalone="no"?>
<!DOCTYPE svg PUBLIC "-//W3C//DTD SVG 20010904//EN"
 "http://www.w3.org/TR/2001/REC-SVG-20010904/DTD/svg10.dtd">
<svg version="1.0" xmlns="http://www.w3.org/2000/svg"
 width="2000.000000pt" height="2000.000000pt" viewBox="0 0 2000.000000 2000.000000"
 preserveAspectRatio="xMidYMid meet">
<metadata>
Created by potrace 1.14, written by Peter Selinger 2001-2017
</metadata>
<g transform="translate(0.000000,2000.000000) scale(0.100000,-0.100000)"
fill="#000000" stroke="none">
<path d="M3990 16889 c-84 -14 -212 -62 -291 -109 -40 -24 -108 -77 -151 -118
-134 -128 -212 -269 -249 -446 -18 -88 -19 -271 -19 -6226 0 -5955 1 -6138 19
-6226 37 -177 115 -318 249 -446 127 -121 284 -201 452 -227 92 -15 12669 -15
12760 0 184 29 324 103 465 244 141 141 215 281 244 465 8 45 11 1950 11 6195
0 5950 -1 6133 -19 6221 -37 177 -115 318 -249 446 -127 121 -284 201 -452
227 -83 14 -12689 13 -12770 0z m12785 -529 c64 -31 134 -101 165 -165 l25
-50 0 -6155 0 -6155 -25 -50 c-31 -64 -101 -134 -165 -165 l-50 -25 -6345 0
-6345 0 -50 25 c-64 31 -134 101 -165 165 l-25 50 -3 6140 c-2 5486 0 6144 13
6185 31 92 119 180 213 215 31 11 1020 13 6372 12 l6335 -2 50 -25z"/>
<path d="M5010 11897 c-61 -17 -115 -51 -146 -92 -57 -75 -54 20 -54 -1877 0
-1723 0 -1748 20 -1768 42 -42 120 -55 340 -55 220 0 298 13 340 55 20 20 20
44 20 1582 0 964 4 1558 9 1553 5 -6 249 -705 541 -1555 590 -1717 536 -1583
647 -1617 48 -15 95 -18 278 -18 252 0 290 7 345 63 32 34 82 168 585 1584
l550 1546 5 -1551 c4 -1196 8 -1557 17 -1573 31 -53 173 -79 403 -71 177 6
245 19 286 58 l24 22 0 1748 c0 1596 -1 1751 -17 1798 -21 68 -70 123 -135
152 -52 23 -61 24 -372 27 -337 4 -436 -3 -528 -38 -102 -38 -188 -137 -242
-278 -14 -37 -220 -582 -457 -1212 -237 -630 -435 -1152 -439 -1160 -7 -12
-11 -8 -20 15 -27 70 -786 2160 -821 2264 -22 62 -51 136 -65 164 -55 108
-162 189 -295 223 -86 22 -748 31 -819 11z"/>
<path d="M10317 11900 c-83 -21 -138 -69 -157 -138 -6 -25 -10 -620 -10 -1805
l0 -1769 28 -28 c45 -44 115 -55 362 -55 229 0 298 11 351 54 l24 19 3 741 2
741 174 0 c201 0 261 -13 363 -79 149 -96 231 -249 509 -941 102 -256 193
-473 201 -482 9 -10 36 -25 62 -35 40 -16 81 -18 326 -18 280 0 334 5 378 38
30 21 32 86 7 169 -25 82 -375 909 -450 1063 -114 232 -237 375 -415 480 -36
21 -38 24 -20 31 401 146 626 394 690 763 19 109 19 325 0 436 -18 103 -68
240 -116 321 -44 74 -167 204 -243 259 -159 112 -392 194 -646 226 -110 14
-1371 22 -1423 9z m1243 -605 c96 -21 202 -71 261 -123 52 -47 110 -149 130
-232 7 -30 13 -100 13 -155 0 -266 -141 -444 -412 -517 -66 -18 -115 -21 -354
-25 l-278 -5 0 542 0 543 283 -6 c204 -4 303 -10 357 -22z"/>
<path d="M13755 11881 c-27 -11 -51 -40 -65 -76 -31 -78 -29 -381 4 -458 8
-20 27 -44 42 -54 26 -17 73 -18 770 -23 l743 -5 -701 -1110 c-385 -610 -731
-1160 -768 -1221 -148 -240 -163 -293 -158 -524 4 -167 14 -205 70 -257 59
-56 -2 -53 1268 -53 l1171 0 24 24 c40 40 50 96 50 281 0 186 -15 260 -58 290
-19 13 -127 15 -825 15 -755 0 -804 1 -798 17 4 10 338 544 743 1188 405 643
756 1206 780 1250 64 122 76 180 77 385 1 221 -13 262 -109 314 l-40 21 -1100
2 c-605 1 -1109 -2 -1120 -6z"/>
</g>
</svg>
